<?xml version="1.0" standalone="no"?>
<!DOCTYPE svg PUBLIC "-//W3C//DTD SVG 20010904//EN"
 "http://www.w3.org/TR/2001/REC-SVG-20010904/DTD/svg10.dtd">
<svg version="1.0" xmlns="http://www.w3.org/2000/svg"
 width="1040.000000pt" height="1040.000000pt" viewBox="0 0 1040.000000 1040.000000"
 preserveAspectRatio="xMidYMid meet">
<metadata>
Created by potrace 1.14, written by Peter Selinger 2001-2017
</metadata>
<g transform="translate(0.000000,1040.000000) scale(0.100000,-0.100000)"
fill="#000000" stroke="none">
<path d="M2256 8712 c-2 -1 -27 -5 -56 -7 -30 -3 -61 -7 -69 -10 -9 -2 -38 -7
-65 -10 -27 -3 -52 -7 -56 -10 -3 -2 -22 -7 -41 -10 -72 -13 -225 -61 -309
-97 -319 -138 -525 -322 -659 -587 -28 -56 -48 -101 -46 -101 2 0 -2 -15 -10
-34 -8 -18 -17 -48 -20 -66 -3 -18 -10 -40 -14 -49 -5 -9 -9 -19 -9 -24 0 -4
-3 -35 -8 -70 -12 -104 -13 -134 -13 -342 0 -110 0 -207 0 -215 1 -8 1 -62 0
-120 0 -58 0 -114 0 -125 0 -11 0 -134 -1 -273 0 -139 2 -257 5 -263 4 -5 3
-9 -2 -9 -4 0 -8 -53 -9 -118 -1 -147 -7 -180 -49 -267 -52 -108 -134 -185
-270 -253 -73 -36 -203 -81 -280 -96 -66 -13 -82 -16 -125 -22 -25 -4 -65 -8
-90 -9 -25 -2 -48 -4 -52 -4 -5 -1 -8 -145 -8 -321 0 -249 3 -320 13 -321 6 0
35 -2 62 -4 28 -2 68 -6 90 -10 90 -15 130 -22 130 -25 0 -1 11 -3 25 -6 61
-10 271 -93 290 -114 3 -3 25 -18 48 -33 24 -16 59 -44 78 -64 35 -35 99 -124
98 -133 -1 -3 3 -14 7 -25 21 -48 36 -148 38 -254 1 -63 4 -118 7 -123 3 -4 2
-8 -3 -8 -4 0 -7 -35 -5 -77 1 -43 2 -127 1 -188 -1 -60 0 -123 1 -140 1 -16
2 -34 2 -40 -1 -5 -1 -86 -1 -180 -1 -305 -2 -389 -4 -463 -1 -39 0 -72 3 -72
3 0 6 -28 7 -63 3 -105 27 -225 69 -335 23 -63 109 -231 123 -242 3 -3 19 -23
35 -45 80 -109 257 -256 406 -337 57 -31 201 -92 260 -111 85 -27 125 -38 145
-42 11 -2 20 -4 20 -5 0 -1 7 -3 15 -5 153 -31 227 -42 363 -51 l77 -5 1 63
c1 35 1 66 0 70 -1 12 -2 62 -1 113 1 28 1 55 0 60 -1 6 -2 14 -1 18 2 10 3
220 2 278 -1 21 -6 36 -13 37 -7 1 -35 4 -62 6 -49 4 -126 16 -156 23 -8 2
-26 5 -40 8 -14 2 -37 8 -52 14 -16 6 -28 9 -28 6 0 -7 -134 42 -196 72 -164
80 -268 191 -309 329 -23 78 -34 231 -19 256 3 4 1 8 -4 8 -5 0 -6 17 -2 40 4
22 4 58 0 80 -4 22 -4 43 0 45 4 3 4 20 0 39 -4 19 -4 53 0 75 4 23 4 41 0 41
-4 0 -4 18 0 40 4 22 4 58 0 80 -4 22 -4 43 0 45 4 3 4 20 0 39 -4 19 -4 53 0
75 4 23 4 41 0 41 -4 0 -4 18 0 40 4 22 4 58 0 80 -4 22 -4 43 0 45 4 3 4 20
0 39 -4 19 -4 54 0 77 4 23 6 47 4 53 -6 17 -10 156 -4 156 8 0 -3 200 -16
285 -14 93 -58 228 -110 333 -31 62 -61 118 -67 125 -7 6 -31 37 -54 68 -42
55 -126 138 -193 192 l-35 28 25 17 c14 9 66 57 115 107 89 88 161 186 205
275 12 25 27 56 35 70 13 27 43 114 49 146 2 10 9 37 14 59 23 86 32 195 31
350 0 44 1 98 2 120 1 22 1 47 1 55 -3 92 -3 221 1 227 3 5 2 27 -3 51 -4 23
-4 45 0 47 4 3 4 20 0 39 -4 19 -4 53 0 75 4 23 4 41 0 41 -4 0 -4 18 0 40 4
22 4 58 0 80 -4 22 -4 43 0 45 4 3 4 20 0 39 -4 19 -4 53 0 75 4 23 4 41 0 41
-4 0 -4 19 0 42 5 24 6 46 4 50 -11 18 -3 221 12 293 11 52 10 50 28 95 33 83
127 182 226 239 28 16 102 54 110 56 3 1 19 7 35 14 27 11 158 49 195 56 8 2
15 4 15 5 0 1 9 3 20 4 11 2 38 6 60 9 22 4 69 9 105 12 35 4 66 7 67 9 2 1 3
38 3 82 -1 106 -1 102 0 159 1 28 1 55 0 60 -1 6 -2 14 -1 19 1 5 2 68 1 140
0 72 -1 141 0 154 0 22 -3 23 -71 20 -39 -2 -72 -4 -73 -6z"/>
<path d="M8006 8708 c-10 -30 -13 -68 -6 -68 4 0 4 -18 0 -40 -4 -23 -3 -40 2
-40 5 0 6 -5 2 -11 -8 -14 -8 -285 1 -299 3 -5 3 -10 -2 -10 -4 0 -8 -20 -8
-45 0 -25 3 -45 6 -45 3 0 4 -13 1 -29 -5 -36 7 -43 72 -47 28 -1 69 -5 91 -9
56 -9 98 -16 110 -19 6 -2 24 -6 40 -10 17 -4 57 -16 90 -27 33 -10 64 -19 69
-18 5 0 12 -3 15 -8 3 -5 31 -20 61 -32 30 -13 57 -26 60 -30 3 -3 24 -19 48
-34 122 -79 204 -220 217 -372 5 -62 5 -76 4 -213 0 -45 2 -86 5 -90 2 -4 1
-26 -4 -50 -4 -23 -4 -60 0 -82 4 -23 3 -40 -2 -40 -5 0 -6 -4 -3 -10 3 -5 6
-36 5 -67 -2 -150 0 -224 4 -231 2 -4 1 -26 -4 -50 -4 -23 -4 -60 0 -82 4 -23
3 -40 -2 -40 -5 0 -6 -4 -3 -10 3 -5 6 -36 5 -67 0 -32 0 -96 1 -143 1 -110 1
-107 -1 -160 -4 -108 15 -253 47 -370 15 -56 82 -221 92 -230 4 -3 15 -22 26
-43 11 -21 28 -47 38 -57 9 -11 17 -23 17 -29 0 -11 159 -174 214 -219 l40
-32 -35 -27 c-55 -43 -219 -214 -219 -228 0 -4 -6 -13 -12 -20 -19 -21 -31
-38 -47 -66 -22 -37 -73 -141 -76 -153 -1 -6 -8 -24 -14 -41 -19 -44 -48 -163
-56 -225 -15 -111 -21 -252 -12 -267 3 -4 2 -27 -3 -51 -4 -23 -4 -60 0 -82 4
-23 3 -40 -2 -40 -5 0 -6 -4 -3 -10 3 -5 6 -36 5 -67 -2 -150 0 -224 4 -231 2
-4 1 -26 -4 -50 -4 -23 -4 -60 0 -82 4 -23 3 -40 -2 -40 -5 0 -6 -4 -3 -10 3
-5 6 -36 5 -67 0 -32 0 -89 0 -128 0 -59 0 -123 -2 -195 0 -8 1 -44 2 -80 1
-61 -6 -187 -13 -220 -16 -76 -74 -187 -125 -238 -75 -74 -196 -144 -327 -189
-38 -13 -71 -23 -72 -23 -2 0 -5 -1 -8 -1 -3 -1 -8 -2 -12 -3 -98 -25 -174
-36 -309 -45 -12 -1 -25 -61 -14 -61 4 0 4 -18 0 -40 -4 -22 -5 -42 -2 -45 7
-7 4 -154 -3 -166 -4 -5 -2 -9 3 -9 5 0 6 -17 2 -40 -4 -22 -4 -40 0 -40 4 0
4 -18 0 -40 -4 -22 -4 -40 0 -40 4 0 4 -18 0 -39 -4 -22 -4 -57 -1 -78 l6 -38
60 1 c98 1 294 26 339 43 11 5 24 9 29 9 4 0 20 3 35 6 15 4 36 8 47 10 11 2
43 12 70 21 28 9 56 18 63 20 7 3 16 5 20 6 10 3 129 56 189 85 28 14 81 45
119 70 37 24 68 44 70 44 23 0 227 211 276 285 85 129 160 310 173 418 3 23 7
49 10 57 14 45 22 410 10 430 -4 6 -3 10 2 10 8 0 7 189 -1 222 -2 10 -1 18 2
18 8 0 6 434 -2 463 -2 9 -1 17 2 17 4 0 7 93 7 208 0 255 5 288 60 389 47 87
153 182 255 230 26 13 101 45 110 48 78 24 152 45 175 49 100 20 150 28 210
31 28 2 53 4 58 4 4 1 6 146 5 322 l-3 322 -70 3 c-241 12 -533 123 -660 250
-34 33 -90 110 -95 129 -2 6 -7 19 -11 30 -26 59 -36 153 -37 333 -1 107 -4
198 -7 203 -4 5 -3 9 2 9 8 0 8 270 -1 303 -2 9 -1 17 2 17 8 0 6 434 -2 463
-2 9 -1 17 2 17 4 0 6 30 5 67 -5 142 -12 269 -17 289 -2 12 -7 37 -10 55 -9
55 -15 79 -20 87 -3 5 -7 20 -10 34 -7 40 -64 171 -101 233 -19 32 -35 59 -35
62 0 25 -237 270 -273 282 -7 2 -14 7 -17 10 -8 10 -61 46 -100 68 -106 59
-132 72 -205 103 -86 36 -188 68 -305 97 -8 2 -26 6 -40 8 -14 2 -35 6 -47 9
-11 2 -41 7 -65 11 -170 24 -267 29 -272 13z"/>
<path d="M3119 5685 c-3 -2 -22 -6 -44 -9 -82 -11 -196 -56 -230 -90 -7 -7
-27 -24 -43 -38 -42 -36 -109 -141 -128 -202 -22 -72 -26 -193 -7 -263 8 -32
18 -62 21 -68 4 -5 7 -12 7 -15 2 -18 40 -74 81 -119 96 -107 195 -151 346
-156 55 -2 100 1 104 6 3 5 9 7 14 4 10 -6 103 31 150 61 94 58 185 186 209
294 7 36 6 199 -3 238 -9 41 -61 137 -101 186 -64 79 -206 152 -310 161 -25 3
-49 7 -54 9 -5 3 -10 4 -12 1z"/>
<path d="M5039 5685 c-3 -2 -22 -6 -44 -9 -82 -11 -196 -56 -230 -90 -7 -7
-27 -24 -43 -38 -42 -36 -109 -141 -128 -202 -22 -72 -26 -192 -7 -263 8 -32
18 -62 21 -68 4 -5 7 -12 7 -15 4 -36 96 -144 163 -193 97 -70 258 -103 377
-76 56 13 175 68 175 81 0 4 5 8 11 8 28 0 149 157 149 194 0 9 4 16 9 16 4 0
14 33 21 73 28 164 -14 311 -122 428 -68 74 -193 136 -293 144 -25 3 -49 7
-54 9 -5 3 -10 4 -12 1z"/>
<path d="M6831 5658 c-66 -22 -147 -68 -188 -107 -30 -29 -97 -116 -99 -130 0
-3 -8 -22 -17 -42 -22 -48 -28 -82 -32 -159 -8 -138 53 -287 149 -369 15 -14
34 -30 40 -37 29 -29 147 -78 211 -88 17 -2 32 -5 35 -6 3 -1 7 -2 10 -2 88 7
141 13 166 20 45 14 144 64 144 74 0 4 5 8 11 8 28 0 149 157 149 194 0 9 4
16 9 16 14 0 33 141 28 205 -8 88 -24 142 -62 205 -67 110 -157 181 -275 218
-82 25 -206 25 -279 0z"/>
</g>
</svg>
